# Blender v2.93.9 OBJ File: 'rocks.blend'
# www.blender.org
mtllib RockSmall.mtl
o RockSmall_Cube.001
v -5.073724 -1.000000 0.535640
v -5.073724 -0.535640 1.000000
v -5.430090 -0.535640 0.535640
v -5.074068 0.535602 1.000410
v -5.186379 1.031522 0.660484
v -5.430501 0.535602 0.535937
v -5.074068 -1.000410 -0.535602
v -5.430501 -0.535937 -0.535602
v -5.186379 -0.660484 -1.031522
v -5.478400 1.106026 -0.482627
v -5.478400 0.482627 -1.106026
v -5.542529 0.525344 -0.525344
v -4.326984 -1.000410 0.535937
v -3.940047 -0.660484 0.660484
v -4.326984 -0.535937 1.000410
v -4.392094 1.106026 0.955555
v -4.345572 0.525344 1.112439
v -3.881281 0.482627 0.955555
v -4.345572 -1.112439 -0.525344
v -4.392094 -0.955555 -1.106026
v -3.881281 -0.955555 -0.482627
v -4.477787 1.249096 -0.411092
v -3.750904 0.411092 -0.411092
v -4.477787 0.411092 -1.249096
vt 0.433045 0.808045
vt 0.566955 0.808045
vt 0.566955 0.941955
vt 0.433045 0.941955
vt 0.433045 0.558045
vt 0.566955 0.558045
vt 0.566955 0.691955
vt 0.433045 0.691955
vt 0.683045 0.558045
vt 0.816955 0.558045
vt 0.816955 0.691955
vt 0.683045 0.691955
vt 0.433045 0.058045
vt 0.566955 0.058045
vt 0.566955 0.191955
vt 0.433045 0.191955
vt 0.433045 0.308045
vt 0.566955 0.308045
vt 0.566955 0.441955
vt 0.433045 0.441955
vt 0.183045 0.691955
vt 0.183045 0.750000
vt 0.125000 0.691955
vt 0.625000 0.941955
vt 0.566955 1.000000
vt 0.183045 0.558045
vt 0.125000 0.558045
vt 0.183045 0.500000
vt 0.625000 0.308045
vt 0.625000 0.308045
vt 0.566955 0.250000
vt 0.316955 0.691955
vt 0.375000 0.691955
vt 0.316955 0.750000
vt 0.625000 0.808045
vt 0.625000 0.808045
vt 0.566955 0.750000
vt 0.316955 0.558045
vt 0.316955 0.500000
vt 0.375000 0.558045
vt 0.625000 0.558045
vt 0.625000 0.558045
vt 0.566955 0.500000
vt 0.433045 0.000000
vt 0.566955 0.000000
vt 0.625000 0.058045
vt 0.625000 0.191955
vt 0.625000 0.441955
vn -0.0763 -0.0532 0.9957
vn 0.9923 -0.0876 0.0876
vn -0.1411 0.9842 0.1066
vn -0.9972 -0.0528 0.0528
vn -0.1411 -0.1066 -0.9842
vn -0.6776 -0.5200 0.5200
vn -0.7718 0.2312 0.5923
vn -0.7718 -0.5923 -0.2312
vn -0.9861 0.1175 -0.1175
vn 0.3662 -0.6580 0.6580
vn 0.3304 0.2708 0.9042
vn 0.3304 -0.9042 -0.2708
vn 0.6319 0.5481 -0.5481
vn -0.7933 -0.6088 0.0005
vn -0.7933 -0.0005 0.6088
vn -0.9525 0.2445 0.1817
vn -0.9525 -0.1817 -0.2445
vn -0.2542 -0.8919 -0.3741
vn -0.0505 0.7062 -0.7062
vn 0.7628 -0.0294 -0.6460
vn 0.4720 -0.8654 0.1684
vn 0.7628 0.6460 0.0294
vn 0.4720 -0.1684 0.8654
vn -0.0007 -0.7071 0.7071
vn -0.2542 0.3741 0.8919
vn -0.0763 -0.9957 0.0532
usemtl None
s off
f 15/1/1 17/2/1 4/3/1 2/4/1
f 21/5/2 23/6/2 18/7/2 14/8/2
f 22/9/3 10/10/3 5/11/3 16/12/3
f 3/13/4 6/14/4 12/15/4 8/16/4
f 9/17/5 11/18/5 24/19/5 20/20/5
f 1/21/6 2/22/6 3/23/6
f 4/3/7 5/24/7 6/25/7
f 7/26/8 8/27/8 9/28/8
f 10/29/9 11/30/9 12/31/9
f 13/32/10 14/33/10 15/34/10
f 16/35/11 17/36/11 18/37/11
f 19/38/12 20/39/12 21/40/12
f 22/41/13 23/42/13 24/43/13
f 7/26/14 1/21/14 3/23/14 8/27/14
f 2/44/15 4/45/15 6/14/15 3/13/15
f 5/46/16 10/47/16 12/15/16 6/14/16
f 11/18/17 9/17/17 8/16/17 12/15/17
f 19/38/18 7/26/18 9/28/18 20/39/18
f 10/29/19 22/48/19 24/19/19 11/18/19
f 23/6/20 21/5/20 20/20/20 24/19/20
f 13/32/21 19/38/21 21/5/21 14/8/21
f 22/9/22 16/12/22 18/7/22 23/6/22
f 17/2/23 15/1/23 14/8/23 18/7/23
f 1/21/24 13/32/24 15/34/24 2/22/24
f 16/35/25 5/24/25 4/3/25 17/2/25
f 7/26/26 19/38/26 13/32/26 1/21/26
