# Blender v2.93.9 OBJ File: 'rocks.blend'
# www.blender.org
mtllib RockSmall2.mtl
o RockSmall2_Sphere
v -0.201729 1.128181 2.126779
v -0.084582 -0.075849 1.917255
v -0.011601 -0.740398 2.290792
v 0.548599 1.128181 2.559981
v 0.976542 -0.075849 2.529896
v 0.619992 -0.740398 2.655442
v 0.629309 0.819161 3.321310
v 0.866025 -0.000000 3.500000
v 0.612372 -0.707107 3.353554
v 0.138189 0.812634 3.496579
v 0.172323 0.007150 3.832990
v 0.024009 -0.706111 3.683839
v 0.000000 -1.000000 3.000000
v -0.104126 1.362792 2.843920
v -0.485024 0.843879 3.129204
v -0.693702 0.007150 3.332990
v -0.588364 -0.706111 3.330285
v -0.654818 0.825615 2.578357
v -0.866025 -0.000000 2.500000
v -0.612372 -0.707107 2.646446
vt 0.666667 0.250000
vt 0.666667 0.500000
vt 0.500000 0.500000
vt 0.500000 0.250000
vt 0.666667 0.750000
vt 0.583333 1.000000
vt 0.500000 0.750000
vt 0.583333 0.000000
vt 0.333333 0.500000
vt 0.333333 0.250000
vt 0.416667 1.000000
vt 0.333333 0.750000
vt 0.416667 0.000000
vt 0.166667 0.500000
vt 0.166667 0.250000
vt 0.250000 1.000000
vt 0.166667 0.750000
vt 0.250000 0.000000
vt 0.000000 0.500000
vt 0.000000 0.250000
vt 0.083333 1.000000
vt 0.000000 0.750000
vt 0.083333 0.000000
vt 1.000000 0.500000
vt 1.000000 0.750000
vt 0.833333 0.750000
vt 0.833333 0.500000
vt 1.000000 0.250000
vt 0.833333 0.250000
vt 0.916667 1.000000
vt 0.916667 0.000000
vt 0.750000 0.000000
vt 0.750000 1.000000
vn 0.4590 -0.3965 -0.7950
vn 0.1897 0.9253 -0.3285
vn 0.1962 -0.9198 -0.3399
vn 0.4904 0.1955 -0.8493
vn 0.9094 -0.4059 0.0910
vn 0.4352 0.8494 0.2986
vn 0.4083 -0.9116 0.0479
vn 0.9471 0.3155 0.0588
vn 0.4368 -0.3001 0.8480
vn 0.1992 0.7845 0.5873
vn 0.2116 -0.9006 0.3796
vn 0.3714 0.3363 0.8654
vn -0.4985 -0.0769 0.8635
vn -0.3661 0.6401 0.6755
vn -0.2259 -0.8921 0.3913
vn -0.4717 0.3204 0.8215
vn -0.9399 0.2546 0.2277
vn -0.9647 -0.2311 0.1261
vn -0.7322 0.6497 0.2042
vn -0.4393 -0.8982 0.0167
vn -0.2457 -0.9116 -0.3297
vn -0.6508 0.1361 -0.7469
vn -0.5347 -0.4079 -0.7401
vn -0.6506 0.7435 -0.1547
usemtl None
s off
f 3/1/1 2/2/1 5/3/1 6/4/1
f 1/5/2 14/6/2 4/7/2
f 13/8/3 3/1/3 6/4/3
f 2/2/4 1/5/4 4/7/4 5/3/4
f 6/4/5 5/3/5 8/9/5 9/10/5
f 4/7/6 14/11/6 7/12/6
f 13/13/7 6/4/7 9/10/7
f 5/3/8 4/7/8 7/12/8 8/9/8
f 9/10/9 8/9/9 11/14/9 12/15/9
f 7/12/10 14/16/10 10/17/10
f 13/18/11 9/10/11 12/15/11
f 8/9/12 7/12/12 10/17/12 11/14/12
f 12/15/13 11/14/13 16/19/13 17/20/13
f 10/17/14 14/21/14 15/22/14
f 13/23/15 12/15/15 17/20/15
f 11/14/16 10/17/16 15/22/16 16/19/16
f 16/24/17 15/25/17 18/26/17 19/27/17
f 17/28/18 16/24/18 19/27/18 20/29/18
f 15/25/19 14/30/19 18/26/19
f 13/31/20 17/28/20 20/29/20
f 13/32/21 20/29/21 3/1/21
f 19/27/22 18/26/22 1/5/22 2/2/22
f 20/29/23 19/27/23 2/2/23 3/1/23
f 18/26/24 14/33/24 1/5/24
