# Blender v2.93.9 OBJ File: 'rocks.blend'
# www.blender.org
mtllib RockTall2.mtl
o RockTall2_Cube.002
v 2.961987 -1.001192 7.151628
v 2.974992 -1.001477 5.830199
v 2.880080 0.371968 5.730506
v 4.784555 -1.000000 7.023838
v 4.847837 0.092080 7.117604
v 4.875996 -1.000000 5.889916
v 4.920659 0.028820 5.760491
v 3.953774 -1.000629 5.511350
v 3.844300 0.194238 5.329746
v 3.864678 -1.001690 7.250315
v 3.867884 0.295361 7.655007
v 4.102247 5.003410 5.728074
v 4.469016 3.935532 5.963254
v 4.398117 3.934038 6.946785
v 4.032102 4.734756 7.025241
v 3.889069 2.480199 5.481853
v 4.600183 2.085262 5.872406
v 4.506670 2.084723 7.042234
v 3.844192 2.474747 7.346643
v 3.175706 2.527452 7.175177
v 2.925959 0.430242 7.225990
v 3.538980 4.620033 6.877814
v 3.576610 4.880783 6.004634
v 3.199051 2.524958 5.810799
vt 0.375000 0.000000
vt 0.625000 0.000000
vt 0.625000 0.250000
vt 0.375000 0.250000
vt 0.375000 0.375000
vt 0.625000 0.375000
vt 0.625000 0.500000
vt 0.375000 0.500000
vt 0.625000 0.750000
vt 0.375000 0.750000
vt 0.375000 0.875000
vt 0.625000 0.875000
vt 0.625000 1.000000
vt 0.375000 1.000000
vt 0.250000 0.500000
vt 0.250000 0.750000
vt 0.625000 0.750000
vt 0.625000 0.500000
vt 0.625000 0.500000
vt 0.625000 0.750000
vt 0.625000 0.375000
vt 0.625000 0.375000
vt 0.125000 0.500000
vt 0.125000 0.750000
vt 0.750000 0.500000
vt 0.875000 0.500000
vt 0.875000 0.750000
vt 0.750000 0.750000
vt 0.625000 0.875000
vt 0.625000 0.875000
vt 0.625000 0.250000
vt 0.625000 0.250000
vt 0.625000 1.000000
vt 0.625000 1.000000
vt 0.625000 0.000000
vt 0.625000 0.000000
vn -0.9988 -0.0465 0.0126
vn 0.3643 -0.1186 -0.9237
vn 0.9965 -0.0496 0.0670
vn -0.2825 -0.1692 0.9442
vn 0.0013 -1.0000 -0.0003
vn 0.9950 0.0646 0.0760
vn 0.5547 0.0536 -0.8303
vn 0.0002 -1.0000 -0.0002
vn 0.3470 -0.2008 0.9161
vn -0.3547 -0.1296 -0.9259
vn -0.1942 0.9552 0.2234
vn 0.9233 0.3706 0.1010
vn 0.4305 0.0829 0.8988
vn -0.4487 0.1340 -0.8836
vn -0.2693 0.1689 0.9481
vn -0.3379 0.0965 0.9362
vn -0.3932 0.0802 -0.9159
vn 0.4873 0.1221 0.8647
vn 0.4373 0.0822 -0.8956
vn 0.9852 0.1604 0.0609
vn -0.9864 0.1641 -0.0079
vn -0.9912 0.1326 0.0050
usemtl None
s off
f 1/1/1 21/2/1 3/3/1 2/4/1
f 8/5/2 9/6/2 7/7/2 6/8/2
f 6/8/3 7/7/3 5/9/3 4/10/3
f 10/11/4 11/12/4 21/13/4 1/14/4
f 8/15/5 6/8/5 4/10/5 10/16/5
f 18/17/6 17/18/6 13/19/6 14/20/6
f 17/18/7 16/21/7 12/22/7 13/19/7
f 2/23/8 8/15/8 10/16/8 1/24/8
f 4/10/9 5/9/9 11/12/9 10/11/9
f 2/4/10 3/3/10 9/6/10 8/5/10
f 12/25/11 23/26/11 22/27/11 15/28/11
f 13/19/12 12/25/12 15/28/12 14/20/12
f 19/29/13 18/17/13 14/20/13 15/30/13
f 16/21/14 24/31/14 23/32/14 12/22/14
f 20/33/15 19/29/15 15/30/15 22/34/15
f 21/13/16 11/12/16 19/29/16 20/33/16
f 9/6/17 3/3/17 24/31/17 16/21/17
f 11/12/18 5/9/18 18/17/18 19/29/18
f 7/7/19 9/6/19 16/21/19 17/18/19
f 5/9/20 7/7/20 17/18/20 18/17/20
f 24/31/21 20/35/21 22/36/21 23/32/21
f 3/3/22 21/2/22 20/35/22 24/31/22
