# Blender v2.93.9 OBJ File: 'rocks.blend'
# www.blender.org
mtllib RockMedium.mtl
o RockMedium_Cone
v -3.640180 -0.985894 4.867280
v -3.048944 -1.000000 5.690983
v -3.412215 -1.000000 6.809017
v -4.587785 -1.000000 6.809017
v -5.504073 -1.133124 6.186669
v -3.640180 1.014106 5.867280
v -4.446904 -0.677895 4.349980
v -4.186539 1.036959 5.231198
v -5.448705 -0.686079 5.075896
v -4.109457 1.550627 6.185523
v -3.881493 -0.463480 7.127260
v -5.057063 -0.463480 7.127260
v -5.973351 -0.596603 6.504912
v -4.916182 -0.141374 4.668223
v -4.655817 1.573479 5.549441
v -5.917983 -0.149559 5.394139
vt 0.250000 0.490000
vt 0.250000 0.250000
vt 0.478254 0.324164
vt 0.391068 0.055836
vt 0.521746 0.324164
vt 0.608932 0.055836
vt 0.608932 0.055836
vt 0.521746 0.324164
vt 0.750000 0.490000
vt 0.978254 0.324164
vt 0.891068 0.055836
vt 0.521746 0.324164
vt 0.521746 0.324164
vt 0.750000 0.490000
vt 0.250000 0.250000
vt 0.391068 0.055836
vt 0.250000 0.250000
vt 0.250000 0.250000
vt 0.250000 0.490000
vt 0.108932 0.055836
vt 0.021746 0.324164
vt 0.021746 0.324164
vt 0.250000 0.490000
vt 0.891068 0.055836
vt 0.750000 0.490000
vn 0.7825 0.2785 -0.5569
vn 0.9222 0.2445 0.2996
vn -0.3406 -0.6819 0.6473
vn 0.0448 -0.9989 0.0163
vn -0.7979 -0.5444 -0.2589
vn -0.1918 -0.9211 -0.3387
vn 0.7632 0.3426 0.5479
vn 0.5350 0.7251 -0.4335
vn 0.6601 0.3020 -0.6878
vn 0.0000 0.4236 0.9059
vn -0.5224 0.5503 0.6514
vn -0.5263 0.4505 -0.7212
vn -0.7177 0.5950 0.3618
vn 0.0000 -0.5102 0.8601
vn -0.5863 -0.0327 -0.8095
vn -0.0682 0.4642 -0.8831
usemtl None
s off
f 1/1/1 6/2/1 2/3/1
f 2/3/2 6/2/2 3/4/2
f 5/5/3 4/6/3 12/7/3 13/8/3
f 1/9/4 2/10/4 3/11/4 4/6/4 5/5/4
f 9/12/5 5/5/5 13/8/5 16/13/5
f 1/9/6 5/5/6 9/12/6 7/14/6
f 3/4/7 6/2/7 10/15/7 11/16/7
f 6/2/8 8/17/8 15/18/8 10/15/8
f 6/2/9 1/1/9 7/19/9 8/17/9
f 11/16/10 10/15/10 12/20/10
f 12/20/11 10/15/11 13/21/11
f 16/22/12 15/18/12 14/23/12
f 13/21/13 10/15/13 15/18/13 16/22/13
f 4/6/14 3/11/14 11/24/14 12/7/14
f 7/14/15 9/12/15 16/13/15 14/25/15
f 8/17/16 7/19/16 14/23/16 15/18/16
